<svg xmlns="http://www.w3.org/2000/svg" viewBox="0 0 640 440" role="img" aria-labelledby="title"><title id="title">Условный генплан: горизонтали, отметки и контур здания</title><rect width="640" height="440" fill="#f4f5f2"/><rect x="55" y="40" width="530" height="360" rx="4" fill="none" stroke="#1a2638" stroke-opacity=".25"/><path d="M65 80 C170 15 255 135 350 70 S495 95 575 40" fill="none" stroke="#289da5" stroke-width="1.5"/><text x="70" y="73" font-family="sans-serif" font-size="12" fill="#289da5">156.0</text><path d="M65 124 C170 59 255 179 350 114 S495 139 575 84" fill="none" stroke="#289da5" stroke-width="1.5"/><text x="70" y="117" font-family="sans-serif" font-size="12" fill="#289da5">156.5</text><path d="M65 168 C170 103 255 223 350 158 S495 183 575 128" fill="none" stroke="#289da5" stroke-width="1.5"/><text x="70" y="161" font-family="sans-serif" font-size="12" fill="#289da5">157.0</text><path d="M65 212 C170 147 255 267 350 202 S495 227 575 172" fill="none" stroke="#289da5" stroke-width="1.5"/><text x="70" y="205" font-family="sans-serif" font-size="12" fill="#289da5">157.5</text><path d="M65 256 C170 191 255 311 350 246 S495 271 575 216" fill="none" stroke="#289da5" stroke-width="1.5"/><text x="70" y="249" font-family="sans-serif" font-size="12" fill="#289da5">158.0</text><path d="M65 300 C170 235 255 355 350 290 S495 315 575 260" fill="none" stroke="#289da5" stroke-width="1.5"/><text x="70" y="293" font-family="sans-serif" font-size="12" fill="#289da5">158.5</text><path d="M65 344 C170 279 255 399 350 334 S495 359 575 304" fill="none" stroke="#289da5" stroke-width="1.5"/><text x="70" y="337" font-family="sans-serif" font-size="12" fill="#289da5">159.0</text><path d="M95 75 L525 65 L554 344 L135 365Z" fill="none" stroke="#1a2638" stroke-width="1.7" stroke-dasharray="9 5"/><path d="M120 325 L495 300 L483 258 L124 283Z" fill="#c6e6e5" stroke="#1a2638"/><rect x="222" y="136" width="176" height="118" fill="#f4f5f2" stroke="#1a2638" stroke-width="2"/><path d="M235 138v114" stroke="#1a2638" stroke-opacity=".15"/><path d="M259 138v114" stroke="#1a2638" stroke-opacity=".15"/><path d="M283 138v114" stroke="#1a2638" stroke-opacity=".15"/><path d="M307 138v114" stroke="#1a2638" stroke-opacity=".15"/><path d="M331 138v114" stroke="#1a2638" stroke-opacity=".15"/><path d="M355 138v114" stroke="#1a2638" stroke-opacity=".15"/><path d="M379 138v114" stroke="#1a2638" stroke-opacity=".15"/><text x="269" y="200" font-family="sans-serif" font-size="14" fill="#1a2638">ЗДАНИЕ</text><path d="M149 120h10M154 115v10" stroke="#1a2638"/><text x="163" y="124" font-family="sans-serif" font-size="12" fill="#1a2638">157.2</text><path d="M437 120h10M442 115v10" stroke="#1a2638"/><text x="451" y="124" font-family="sans-serif" font-size="12" fill="#1a2638">158.8</text><path d="M435 326h10M440 321v10" stroke="#1a2638"/><text x="449" y="330" font-family="sans-serif" font-size="12" fill="#1a2638">159.4</text><path d="M555 94V57M550 65l5-8 5 8" fill="none" stroke="#1a2638"/><text x="550" y="50" font-family="sans-serif" font-size="12" fill="#1a2638">С</text></svg>
